<svg version="1.1" id="Layer_1" xmlns="http://www.w3.org/2000/svg" xmlns:xlink="http://www.w3.org/1999/xlink" x="0px" y="0px"
	 width="100%" viewBox="0 0 200 200" enable-background="new 0 0 200 200" xml:space="preserve">
<path fill="#F68321" opacity="1.000000" stroke="none" 
	d="
M1.000000,160.000000 
	C1.000000,108.160988 0.988205,56.321949 1.072580,4.483073 
	C1.074553,3.270741 -0.531942,0.515672 3.774064,1.203817 
	C6.032085,1.271757 7.516042,1.135878 9.000000,1.000000 
	C35.354229,1.000000 61.708454,1.000000 88.805374,1.203809 
	C91.032036,1.271746 92.516022,1.135873 94.000000,1.000000 
	C129.020889,1.000000 164.041794,1.000000 199.588699,1.280153 
	C200.409805,2.040205 200.704910,2.520103 201.000000,3.000000 
	C201.000000,55.020893 201.000000,107.041786 200.531586,159.514725 
	C169.356628,159.920853 138.650085,159.874939 108.169006,159.506409 
	C112.419167,158.474396 116.443871,157.764999 120.610062,157.030670 
	C120.441116,155.605927 120.366646,154.796707 120.246857,153.994263 
	C117.713669,137.026276 115.302643,120.038254 112.533463,103.108810 
	C111.961929,99.614700 113.048355,97.992950 116.093292,97.444908 
	C120.333496,96.681732 124.651947,95.625214 128.893524,95.792725 
	C133.589966,95.978188 135.510864,94.164635 136.070724,89.333359 
	C126.345497,88.783234 116.892303,88.183998 108.311249,93.306473 
	C102.027702,97.057426 97.116081,96.687416 90.768517,92.550095 
	C83.312355,87.690193 74.887413,88.231277 66.128212,88.800667 
	C66.912277,91.713478 67.452499,93.720406 67.615547,94.326126 
	C74.576492,95.417953 80.419510,96.249252 86.227264,97.279343 
	C89.393509,97.840927 90.360977,99.789146 89.851837,103.070053 
	C88.549408,111.462868 87.565697,119.905396 86.473083,128.330444 
	C85.214050,138.038757 83.974937,147.749649 82.737991,157.375168 
	C85.527229,158.305817 87.803604,159.065353 89.609337,159.881805 
	C59.759129,159.959167 30.379564,159.979584 1.000000,160.000000 
M23.201506,66.362335 
	C22.490816,66.954605 21.780128,67.546867 21.700754,67.613014 
	C30.778101,68.699875 40.146355,69.821564 50.154629,71.019882 
	C51.081177,69.165176 52.668682,65.987404 53.966095,63.390327 
	C49.698917,60.923370 45.460762,58.960854 41.803516,56.222496 
	C38.102772,53.451569 34.976936,49.912804 31.599272,46.710377 
	C31.093687,46.987381 30.588102,47.264385 30.082518,47.541389 
	C31.777815,52.321873 33.473114,57.102360 34.940968,61.241489 
	C31.343327,62.776600 27.562201,64.389999 23.201506,66.362335 
M29.474115,102.822609 
	C35.939232,100.598152 42.404350,98.373695 49.128113,96.060242 
	C48.761585,93.694489 48.263412,90.479042 47.945488,88.427025 
	C38.014305,86.909683 28.517183,85.458664 17.314005,83.746979 
	C22.406116,87.840408 26.591442,91.204895 30.233637,94.132767 
	C27.533623,97.837784 24.652033,101.791962 21.770443,105.746140 
	C22.161036,106.063278 22.551626,106.380409 22.942219,106.697548 
	C24.903254,105.519905 26.864288,104.342262 29.474115,102.822609 
M132.144852,29.362511 
	C129.964951,33.924515 127.785049,38.486519 125.482635,43.304920 
	C128.050308,44.834236 131.284851,46.760746 134.765198,48.833664 
	C139.509613,40.064564 148.299240,36.540276 156.601761,32.374264 
	C156.489990,31.810553 156.378220,31.246843 156.266464,30.683134 
	C150.586090,31.228867 144.905716,31.774601 139.951324,32.250587 
	C138.418564,27.833090 136.872040,23.375908 135.325516,18.918724 
	C134.861252,19.051487 134.396988,19.184250 133.932724,19.317013 
	C133.406082,22.401369 132.879440,25.485727 132.144852,29.362511 
M96.509026,38.502064 
	C99.471390,38.502064 102.433762,38.502064 105.862732,38.502064 
	C104.606049,29.170727 109.149040,21.628927 113.841927,14.136388 
	C113.423111,13.694904 113.004303,13.253421 112.585495,12.811937 
	C108.112373,16.114832 103.639252,19.417727 99.790253,22.259773 
	C95.677231,19.374603 91.475868,16.427465 86.526901,12.955901 
	C86.636246,14.632416 86.559082,14.957238 86.684334,15.151628 
	C91.058075,21.939285 94.911499,28.872511 93.722229,37.445908 
	C93.679718,37.752399 95.048218,38.254620 96.509026,38.502064 
M46.632099,32.005013 
	C45.384304,33.351425 45.351578,33.419708 46.952763,34.187073 
	C54.494690,37.801521 61.582180,41.962975 65.662399,49.791454 
	C69.237366,47.733883 72.484230,45.865147 76.087074,43.791523 
	C68.895752,37.197491 68.553772,28.104876 67.158257,19.406065 
	C66.574326,19.342100 65.990402,19.278133 65.406479,19.214169 
	C63.792011,24.044092 62.177544,28.874016 60.694473,33.310841 
	C56.496647,32.891422 51.943485,32.436501 46.632099,32.005013 
M150.667053,68.042442 
	C151.085510,69.046150 151.503967,70.049866 152.015366,71.276489 
	C161.233780,66.151688 170.998032,67.599380 180.623444,67.967064 
	C180.756378,67.369659 180.889328,66.772263 181.022263,66.174866 
	C176.055023,64.015076 171.087784,61.855278 166.702820,59.948666 
	C168.007843,56.051807 169.385147,51.939129 170.969437,47.208359 
	C162.556946,52.798737 155.275665,57.637379 147.879654,62.552269 
	C148.389664,63.541119 149.374847,65.451256 150.667053,68.042442 
M173.059235,92.406044 
	C176.670334,89.870567 180.281448,87.335083 184.409546,84.436600 
	C173.743469,85.529091 164.328751,86.493408 154.412796,87.509064 
	C154.063339,89.608871 153.504166,92.968742 153.199249,94.800880 
	C162.410904,98.773125 171.070801,102.507439 181.350342,106.940186 
	C178.171478,102.554352 175.619873,99.147575 173.220413,95.636780 
	C172.678177,94.843391 172.665314,93.688210 173.059235,92.406044 
M106.751289,62.600506 
	C107.950516,60.346283 109.149750,58.092064 110.348984,55.837841 
	C110.032089,55.510067 109.715195,55.182293 109.398293,54.854519 
	C106.071831,57.278458 102.745369,59.702396 99.757637,61.879505 
	C96.715508,59.697292 93.652214,57.499893 90.398743,55.166080 
	C92.554008,61.982685 94.450386,67.980507 96.423264,74.220276 
	C98.543701,74.220276 101.407646,74.220276 103.650970,74.220276 
	C104.640961,70.268524 105.514824,66.780296 106.751289,62.600506 
M110.910782,80.514565 
	C111.720306,81.358635 112.710953,83.046616 113.311653,82.917694 
	C120.156715,81.448586 126.942291,79.702271 134.300430,77.893158 
	C130.408340,76.489914 126.537674,75.094398 123.123169,73.863350 
	C123.867493,70.478767 124.577454,67.250458 125.374763,63.624947 
	C119.397896,68.482086 114.113136,72.776772 108.723511,77.156685 
	C109.103149,77.715195 109.849655,78.813400 110.910782,80.514565 
M77.485321,66.136436 
	C76.977928,65.014549 76.470543,63.892662 75.963158,62.770775 
	C75.243294,63.286049 74.523430,63.801319 73.803566,64.316589 
	C74.772629,67.841133 75.741692,71.365669 76.641251,74.637405 
	C73.321495,75.968292 69.870079,77.351967 65.964996,78.917526 
	C73.859993,80.376907 80.734421,81.647644 87.968681,82.984894 
	C88.883392,81.353737 90.152954,79.089813 90.925331,77.712486 
	C86.360886,73.844986 82.134285,70.263748 77.485321,66.136436 
M26.262724,58.632355 
	C28.013496,54.875488 25.650635,53.219452 22.658543,52.701714 
	C21.604414,52.519310 19.075680,54.511566 19.135303,55.379311 
	C19.351004,58.518425 21.641750,59.806549 24.763567,59.456184 
	C25.082396,59.420406 25.383125,59.223389 26.262724,58.632355 
M52.830608,19.365124 
	C52.073093,20.162333 50.640663,21.010075 50.695797,21.746435 
	C50.818001,23.378536 51.285069,25.410091 52.395668,26.390240 
	C53.110916,27.021479 56.108727,26.521818 56.503036,25.735983 
	C57.172085,24.402601 56.892773,22.349518 56.406704,20.787275 
	C56.177151,20.049479 54.545765,19.747841 52.830608,19.365124 
M98.937294,14.354450 
	C100.021179,14.079056 101.621841,14.146246 102.079590,13.455768 
	C102.985878,12.088681 103.646812,10.291466 103.599045,8.696321 
	C103.580963,8.092401 100.961327,6.783935 100.170883,7.157595 
	C98.767700,7.820920 97.495934,9.374424 96.885429,10.851538 
	C96.566467,11.623268 97.771706,13.024963 98.937294,14.354450 
M143.753632,24.396645 
	C146.323257,27.576180 148.987869,26.529591 151.120682,24.119158 
	C151.738464,23.420963 151.331085,20.520842 150.637436,20.183052 
	C147.756424,18.780045 145.259857,19.700844 143.803101,22.742470 
	C143.666626,23.027395 143.662109,23.375523 143.753632,24.396645 
M175.132019,54.742825 
	C174.559448,59.097034 177.643158,59.266155 180.397034,58.759975 
	C181.635345,58.532364 182.548080,56.533436 183.608536,55.338242 
	C181.505981,54.601440 179.425018,53.786976 177.283081,53.191956 
	C176.843399,53.069813 176.175705,53.768452 175.132019,54.742825 
M13.692581,92.624916 
	C11.152104,95.782677 13.294884,97.461617 15.951403,97.831413 
	C17.573734,98.057243 19.445084,96.494179 21.204592,95.734566 
	C19.741154,94.466187 18.360857,93.074478 16.766766,91.999924 
	C16.246649,91.649323 15.169423,92.125191 13.692581,92.624916 
M183.524780,98.829575 
	C188.064484,99.532280 190.357910,98.204292 188.932114,95.686119 
	C188.173630,94.346527 186.252350,93.365578 184.659698,92.912376 
	C183.729721,92.647736 181.433273,93.780617 181.450043,94.219902 
	C181.504456,95.644913 182.342926,97.039986 183.524780,98.829575 
M68.886566,67.992508 
	C67.550827,68.390015 66.215088,68.787521 64.879349,69.185036 
	C65.407402,70.285156 65.665741,71.803391 66.539749,72.367226 
	C67.405106,72.925476 68.891533,72.520981 70.105545,72.538773 
	C69.894821,71.147858 69.684090,69.756950 68.886566,67.992508 
M102.734276,53.968170 
	C102.187439,52.685829 101.640602,51.403484 101.093765,50.121140 
	C100.016144,50.723923 98.617523,51.096863 97.966965,52.005432 
	C97.484894,52.678673 97.975288,54.048225 98.032478,55.107597 
	C99.458878,54.941158 100.885284,54.774719 102.734276,53.968170 
M130.533218,72.151855 
	C132.141953,71.687462 133.750671,71.223068 135.359406,70.758667 
	C135.038406,69.922272 134.860870,68.482132 134.368912,68.365242 
	C133.015045,68.043549 131.409348,67.967468 130.159515,68.453339 
	C129.707321,68.629112 129.982529,70.676079 130.533218,72.151855 
z"/>
<path fill="#065BAA" opacity="1.000000" stroke="none" 
	d="
M107.943542,159.829041 
	C138.650085,159.874939 169.356628,159.920853 200.531586,159.983383 
	C201.000000,173.645432 201.000000,187.290878 201.000000,200.936935 
	C134.333313,200.937561 67.666634,200.937561 1.000000,200.937561 
	C1.000000,187.562515 1.000000,174.249924 1.000000,160.468658 
	C30.379564,159.979584 59.759129,159.959167 90.066956,159.954132 
	C96.644661,159.922699 102.294106,159.875854 107.943542,159.829041 
M17.752390,189.087646 
	C20.503975,194.342255 27.450247,196.503372 31.961374,192.986313 
	C33.623318,191.690628 34.956158,188.782028 34.810253,186.724625 
	C34.687412,184.992462 32.469719,182.993896 30.693720,181.906342 
	C28.777878,180.733170 26.247883,180.608307 24.090004,179.760818 
	C23.316483,179.457031 22.212717,178.160324 22.371492,177.701630 
	C22.693270,176.772034 23.809780,175.427856 24.534426,175.466248 
	C26.210543,175.555115 27.865332,176.318314 29.496641,176.898392 
	C30.911373,177.401459 32.281925,178.028763 33.672005,178.601151 
	C34.072235,177.907776 34.472462,177.214401 34.872692,176.521027 
	C32.870155,174.967239 30.957756,172.292435 28.843954,172.122467 
	C25.673410,171.867538 21.765606,172.538208 19.259064,174.333740 
	C16.051485,176.631454 17.660629,182.096329 21.511639,183.670975 
	C23.346838,184.421387 25.508024,184.477631 27.211983,185.412506 
	C28.515003,186.127457 29.331730,187.728699 30.364771,188.935699 
	C28.752808,189.486496 27.147720,190.422546 25.526447,190.451462 
	C24.460737,190.470505 23.453400,188.858521 22.272297,188.558960 
	C20.806698,188.187241 19.188616,188.416718 17.752390,189.087646 
M146.440796,177.519409 
	C144.553253,172.911407 140.899780,171.908554 136.623093,173.260849 
	C132.939697,174.425568 131.545135,177.557236 132.104416,181.212555 
	C133.056198,187.433456 137.824631,187.378540 142.632309,186.741180 
	C141.530502,195.729172 135.549698,186.647949 132.777786,189.890121 
	C133.442123,193.276077 135.990219,194.979980 138.836014,194.363388 
	C141.432770,193.800766 144.986984,192.063446 145.767715,189.967804 
	C147.078842,186.448456 146.524078,182.233994 146.440796,177.519409 
M99.152107,192.613724 
	C99.804840,191.622070 100.457573,190.630417 100.882698,189.984558 
	C97.918083,186.558212 93.173172,194.630798 90.777061,186.906830 
	C94.609200,186.906830 97.954796,186.906830 101.277847,186.906830 
	C101.196594,180.348495 99.027466,177.471390 94.423088,177.169540 
	C89.943275,176.875839 86.735023,179.861450 86.274246,184.752914 
	C85.545982,192.483917 91.048973,196.204102 99.152107,192.613724 
M154.826431,179.426727 
	C156.115402,178.429001 157.322296,177.268066 158.751526,176.549179 
	C159.105499,176.371155 160.891632,177.788376 160.799225,178.194992 
	C160.428101,179.828049 159.886551,181.618683 158.825195,182.847870 
	C157.557968,184.315491 155.406296,185.025360 154.160126,186.503784 
	C152.528442,188.439621 151.407837,190.806229 149.489594,193.927765 
	C155.150909,193.927765 159.115860,194.027344 163.067291,193.840729 
	C163.825043,193.804947 164.529633,192.643631 165.258759,192.001572 
	C164.502090,191.383408 163.802689,190.343765 162.977280,190.231613 
	C161.036255,189.967880 159.035049,190.147110 155.782684,190.147110 
	C159.300674,187.405594 162.169571,186.081421 163.533234,183.841064 
	C164.800064,181.759750 165.551300,178.097504 164.523773,176.242096 
	C163.490250,174.375839 159.940323,172.948715 157.573792,173.059128 
	C155.453537,173.158051 152.839340,175.201843 151.535202,177.127304 
	C149.859711,179.601059 151.514862,180.692612 154.826431,179.426727 
M63.904591,191.986038 
	C63.903828,188.831573 63.998341,185.673401 63.875221,182.523712 
	C63.754700,179.440369 62.113529,177.397507 58.935032,177.423401 
	C55.809868,177.448837 52.688797,177.976868 49.303219,178.310226 
	C49.303219,182.624329 49.079704,186.781693 49.438213,190.888245 
	C49.547016,192.134598 51.263721,193.240555 52.243977,194.410828 
	C52.799091,194.082230 53.354206,193.753647 53.909321,193.425049 
	C53.909321,190.473801 53.629925,187.483063 54.038883,184.589615 
	C54.216862,183.330399 55.808395,182.270981 56.757942,181.120834 
	C57.627186,182.266083 59.089573,183.335846 59.246845,184.571716 
	C59.617401,187.483612 59.365665,190.474686 59.365665,194.382553 
	C61.338238,193.698944 62.553825,193.277679 63.904591,191.986038 
M73.314049,194.162720 
	C79.805832,194.592300 81.429405,193.540466 82.623001,187.379745 
	C80.829811,188.103027 79.506172,188.799332 78.096626,189.158981 
	C76.732155,189.507172 75.279297,189.508957 73.865257,189.662888 
	C73.797119,187.150055 73.728981,184.637238 73.660843,182.124420 
	C75.084038,182.111115 76.553970,181.868347 77.917877,182.146133 
	C79.417587,182.451599 80.819740,183.236069 82.264404,183.811829 
	C82.657455,183.126846 83.050514,182.441864 83.443573,181.756882 
	C81.241837,180.245758 79.132782,177.720520 76.812340,177.508469 
	C74.487053,177.295975 71.205772,178.766403 69.660141,180.605667 
	C66.317032,184.583862 67.947037,190.459198 73.314049,194.162720 
M173.763824,187.246628 
	C173.343536,189.291611 172.923264,191.336609 172.502975,193.381592 
	C173.028076,193.740067 173.553177,194.098541 174.078262,194.457016 
	C175.139999,193.267746 176.510284,192.234528 177.205505,190.859909 
	C179.280670,186.756882 181.131287,182.537643 182.983124,178.325775 
	C183.625732,176.864258 184.015106,175.291397 184.699753,173.228088 
	C179.713928,173.228088 175.741837,173.126114 171.783249,173.311890 
	C170.966171,173.350235 170.199371,174.460358 169.409409,175.076492 
	C170.172012,175.716644 170.884628,176.820068 171.706757,176.908813 
	C174.037247,177.160355 176.412506,176.996918 179.061844,176.996918 
	C177.088760,180.703766 175.540344,183.612793 173.763824,187.246628 
M119.999580,189.316925 
	C120.698540,190.831299 121.397491,192.345673 122.096451,193.860046 
	C122.775383,193.157593 124.025696,192.469391 124.043625,191.750458 
	C124.199104,185.513672 124.133240,179.271362 124.133240,171.853622 
	C120.345734,174.313187 117.538361,176.136276 113.815308,178.554001 
	C116.580307,179.166000 118.109337,179.504425 119.998886,179.922653 
	C119.998886,182.804901 119.998886,185.593658 119.999580,189.316925 
M42.426262,177.891891 
	C41.602161,178.231369 40.075493,178.543365 40.060978,178.914505 
	C39.886505,183.375809 39.866837,187.848190 40.017212,192.310608 
	C40.035351,192.848938 41.472809,193.894836 41.930908,193.741959 
	C42.764500,193.463791 43.958347,192.456970 43.952206,191.763519 
	C43.911728,187.196671 43.591091,182.632294 42.426262,177.891891 
z"/>
<path fill="#F68728" opacity="1.000000" stroke="none" 
	d="
M93.583336,1.000000 
	C92.516022,1.135873 91.032036,1.271746 89.274033,1.203809 
	C90.388893,1.000000 91.777779,1.000000 93.583336,1.000000 
z"/>
<path fill="#F68728" opacity="1.000000" stroke="none" 
	d="
M8.583334,1.000000 
	C7.516042,1.135878 6.032085,1.271757 4.274064,1.203817 
	C5.388889,1.000000 6.777778,1.000000 8.583334,1.000000 
z"/>
<path fill="#F68728" opacity="1.000000" stroke="none" 
	d="
M201.000000,2.500000 
	C200.704910,2.520103 200.409805,2.040205 200.057358,1.280153 
	C200.333328,1.333332 200.666672,1.666666 201.000000,2.500000 
z"/>
<path fill="#FEFCF9" opacity="1.000000" stroke="none" 
	d="
M108.169006,159.506409 
	C102.294106,159.875854 96.644661,159.922699 90.537598,159.897217 
	C87.803604,159.065353 85.527229,158.305817 82.737991,157.375168 
	C83.974937,147.749649 85.214050,138.038757 86.473083,128.330444 
	C87.565697,119.905396 88.549408,111.462868 89.851837,103.070053 
	C90.360977,99.789146 89.393509,97.840927 86.227264,97.279343 
	C80.419510,96.249252 74.576492,95.417953 67.615547,94.326126 
	C67.452499,93.720406 66.912277,91.713478 66.128212,88.800667 
	C74.887413,88.231277 83.312355,87.690193 90.768517,92.550095 
	C97.116081,96.687416 102.027702,97.057426 108.311249,93.306473 
	C116.892303,88.183998 126.345497,88.783234 136.070724,89.333359 
	C135.510864,94.164635 133.589966,95.978188 128.893524,95.792725 
	C124.651947,95.625214 120.333496,96.681732 116.093292,97.444908 
	C113.048355,97.992950 111.961929,99.614700 112.533463,103.108810 
	C115.302643,120.038254 117.713669,137.026276 120.246857,153.994263 
	C120.366646,154.796707 120.441116,155.605927 120.610062,157.030670 
	C116.443871,157.764999 112.419167,158.474396 108.169006,159.506409 
z"/>
<path fill="#FDF9F2" opacity="1.000000" stroke="none" 
	d="
M23.491291,66.182861 
	C27.562201,64.389999 31.343327,62.776600 34.940968,61.241489 
	C33.473114,57.102360 31.777815,52.321873 30.082518,47.541389 
	C30.588102,47.264385 31.093687,46.987381 31.599272,46.710377 
	C34.976936,49.912804 38.102772,53.451569 41.803516,56.222496 
	C45.460762,58.960854 49.698917,60.923370 53.966095,63.390327 
	C52.668682,65.987404 51.081177,69.165176 50.154629,71.019882 
	C40.146355,69.821564 30.778101,68.699875 21.700754,67.613014 
	C21.780128,67.546867 22.490816,66.954605 23.491291,66.182861 
z"/>
<path fill="#FDF8F1" opacity="1.000000" stroke="none" 
	d="
M29.149719,102.993614 
	C26.864288,104.342262 24.903254,105.519905 22.942219,106.697548 
	C22.551626,106.380409 22.161036,106.063278 21.770443,105.746140 
	C24.652033,101.791962 27.533623,97.837784 30.233637,94.132767 
	C26.591442,91.204895 22.406116,87.840408 17.314005,83.746979 
	C28.517183,85.458664 38.014305,86.909683 47.945488,88.427025 
	C48.263412,90.479042 48.761585,93.694489 49.128113,96.060242 
	C42.404350,98.373695 35.939232,100.598152 29.149719,102.993614 
z"/>
<path fill="#FCF8F0" opacity="1.000000" stroke="none" 
	d="
M132.248825,28.966297 
	C132.879440,25.485727 133.406082,22.401369 133.932724,19.317013 
	C134.396988,19.184250 134.861252,19.051487 135.325516,18.918724 
	C136.872040,23.375908 138.418564,27.833090 139.951324,32.250587 
	C144.905716,31.774601 150.586090,31.228867 156.266464,30.683134 
	C156.378220,31.246843 156.489990,31.810553 156.601761,32.374264 
	C148.299240,36.540276 139.509613,40.064564 134.765198,48.833664 
	C131.284851,46.760746 128.050308,44.834236 125.482635,43.304920 
	C127.785049,38.486519 129.964951,33.924515 132.248825,28.966297 
z"/>
<path fill="#FDF8F1" opacity="1.000000" stroke="none" 
	d="
M96.134064,38.583839 
	C95.048218,38.254620 93.679718,37.752399 93.722229,37.445908 
	C94.911499,28.872511 91.058075,21.939285 86.684334,15.151628 
	C86.559082,14.957238 86.636246,14.632416 86.526901,12.955901 
	C91.475868,16.427465 95.677231,19.374603 99.790253,22.259773 
	C103.639252,19.417727 108.112373,16.114832 112.585495,12.811937 
	C113.004303,13.253421 113.423111,13.694904 113.841927,14.136388 
	C109.149040,21.628927 104.606049,29.170727 105.862732,38.502064 
	C102.433762,38.502064 99.471390,38.502064 96.134064,38.583839 
z"/>
<path fill="#FCF8F1" opacity="1.000000" stroke="none" 
	d="
M47.011215,31.993298 
	C51.943485,32.436501 56.496647,32.891422 60.694473,33.310841 
	C62.177544,28.874016 63.792011,24.044092 65.406479,19.214169 
	C65.990402,19.278133 66.574326,19.342100 67.158257,19.406065 
	C68.553772,28.104876 68.895752,37.197491 76.087074,43.791523 
	C72.484230,45.865147 69.237366,47.733883 65.662399,49.791454 
	C61.582180,41.962975 54.494690,37.801521 46.952763,34.187073 
	C45.351578,33.419708 45.384304,33.351425 47.011215,31.993298 
z"/>
<path fill="#FDF9F2" opacity="1.000000" stroke="none" 
	d="
M150.513550,67.701912 
	C149.374847,65.451256 148.389664,63.541119 147.879654,62.552269 
	C155.275665,57.637379 162.556946,52.798737 170.969437,47.208359 
	C169.385147,51.939129 168.007843,56.051807 166.702820,59.948666 
	C171.087784,61.855278 176.055023,64.015076 181.022263,66.174866 
	C180.889328,66.772263 180.756378,67.369659 180.623444,67.967064 
	C170.998032,67.599380 161.233780,66.151688 152.015366,71.276489 
	C151.503967,70.049866 151.085510,69.046150 150.513550,67.701912 
z"/>
<path fill="#FCF8F0" opacity="1.000000" stroke="none" 
	d="
M172.734009,92.552803 
	C172.665314,93.688210 172.678177,94.843391 173.220413,95.636780 
	C175.619873,99.147575 178.171478,102.554352 181.350342,106.940186 
	C171.070801,102.507439 162.410904,98.773125 153.199249,94.800880 
	C153.504166,92.968742 154.063339,89.608871 154.412796,87.509064 
	C164.328751,86.493408 173.743469,85.529091 184.409546,84.436600 
	C180.281448,87.335083 176.670334,89.870567 172.734009,92.552803 
z"/>
<path fill="#FCF5EC" opacity="1.000000" stroke="none" 
	d="
M106.569992,62.946285 
	C105.514824,66.780296 104.640961,70.268524 103.650970,74.220276 
	C101.407646,74.220276 98.543701,74.220276 96.423264,74.220276 
	C94.450386,67.980507 92.554008,61.982685 90.398743,55.166080 
	C93.652214,57.499893 96.715508,59.697292 99.757637,61.879505 
	C102.745369,59.702396 106.071831,57.278458 109.398293,54.854519 
	C109.715195,55.182293 110.032089,55.510067 110.348984,55.837841 
	C109.149750,58.092064 107.950516,60.346283 106.569992,62.946285 
z"/>
<path fill="#FCF7EF" opacity="1.000000" stroke="none" 
	d="
M110.753464,80.213089 
	C109.849655,78.813400 109.103149,77.715195 108.723511,77.156685 
	C114.113136,72.776772 119.397896,68.482086 125.374763,63.624947 
	C124.577454,67.250458 123.867493,70.478767 123.123169,73.863350 
	C126.537674,75.094398 130.408340,76.489914 134.300430,77.893158 
	C126.942291,79.702271 120.156715,81.448586 113.311653,82.917694 
	C112.710953,83.046616 111.720306,81.358635 110.753464,80.213089 
z"/>
<path fill="#FCF5EC" opacity="1.000000" stroke="none" 
	d="
M77.696503,66.409470 
	C82.134285,70.263748 86.360886,73.844986 90.925331,77.712486 
	C90.152954,79.089813 88.883392,81.353737 87.968681,82.984894 
	C80.734421,81.647644 73.859993,80.376907 65.964996,78.917526 
	C69.870079,77.351967 73.321495,75.968292 76.641251,74.637405 
	C75.741692,71.365669 74.772629,67.841133 73.803566,64.316589 
	C74.523430,63.801319 75.243294,63.286049 75.963158,62.770775 
	C76.470543,63.892662 76.977928,65.014549 77.696503,66.409470 
z"/>
<path fill="#FCF3E7" opacity="1.000000" stroke="none" 
	d="
M25.977489,58.866772 
	C25.383125,59.223389 25.082396,59.420406 24.763567,59.456184 
	C21.641750,59.806549 19.351004,58.518425 19.135303,55.379311 
	C19.075680,54.511566 21.604414,52.519310 22.658543,52.701714 
	C25.650635,53.219452 28.013496,54.875488 25.977489,58.866772 
z"/>
<path fill="#FBF5EA" opacity="1.000000" stroke="none" 
	d="
M53.190079,19.306850 
	C54.545765,19.747841 56.177151,20.049479 56.406704,20.787275 
	C56.892773,22.349518 57.172085,24.402601 56.503036,25.735983 
	C56.108727,26.521818 53.110916,27.021479 52.395668,26.390240 
	C51.285069,25.410091 50.818001,23.378536 50.695797,21.746435 
	C50.640663,21.010075 52.073093,20.162333 53.190079,19.306850 
z"/>
<path fill="#FCF7ED" opacity="1.000000" stroke="none" 
	d="
M98.612915,14.248291 
	C97.771706,13.024963 96.566467,11.623268 96.885429,10.851538 
	C97.495934,9.374424 98.767700,7.820920 100.170883,7.157595 
	C100.961327,6.783935 103.580963,8.092401 103.599045,8.696321 
	C103.646812,10.291466 102.985878,12.088681 102.079590,13.455768 
	C101.621841,14.146246 100.021179,14.079056 98.612915,14.248291 
z"/>
<path fill="#FBF5EA" opacity="1.000000" stroke="none" 
	d="
M143.674988,24.045479 
	C143.662109,23.375523 143.666626,23.027395 143.803101,22.742470 
	C145.259857,19.700844 147.756424,18.780045 150.637436,20.183052 
	C151.331085,20.520842 151.738464,23.420963 151.120682,24.119158 
	C148.987869,26.529591 146.323257,27.576180 143.674988,24.045479 
z"/>
<path fill="#FCF4EA" opacity="1.000000" stroke="none" 
	d="
M175.372559,54.415794 
	C176.175705,53.768452 176.843399,53.069813 177.283081,53.191956 
	C179.425018,53.786976 181.505981,54.601440 183.608536,55.338242 
	C182.548080,56.533436 181.635345,58.532364 180.397034,58.759975 
	C177.643158,59.266155 174.559448,59.097034 175.372559,54.415794 
z"/>
<path fill="#FCF5EA" opacity="1.000000" stroke="none" 
	d="
M14.019789,92.423996 
	C15.169423,92.125191 16.246649,91.649323 16.766766,91.999924 
	C18.360857,93.074478 19.741154,94.466187 21.204592,95.734566 
	C19.445084,96.494179 17.573734,98.057243 15.951403,97.831413 
	C13.294884,97.461617 11.152104,95.782677 14.019789,92.423996 
z"/>
<path fill="#FBF9F0" opacity="1.000000" stroke="none" 
	d="
M183.202118,98.638077 
	C182.342926,97.039986 181.504456,95.644913 181.450043,94.219902 
	C181.433273,93.780617 183.729721,92.647736 184.659698,92.912376 
	C186.252350,93.365578 188.173630,94.346527 188.932114,95.686119 
	C190.357910,98.204292 188.064484,99.532280 183.202118,98.638077 
z"/>
<path fill="#FBECDC" opacity="1.000000" stroke="none" 
	d="
M69.179962,68.179276 
	C69.684090,69.756950 69.894821,71.147858 70.105545,72.538773 
	C68.891533,72.520981 67.405106,72.925476 66.539749,72.367226 
	C65.665741,71.803391 65.407402,70.285156 64.879349,69.185036 
	C66.215088,68.787521 67.550827,68.390015 69.179962,68.179276 
z"/>
<path fill="#FBF0E2" opacity="1.000000" stroke="none" 
	d="
M102.522980,54.288223 
	C100.885284,54.774719 99.458878,54.941158 98.032478,55.107597 
	C97.975288,54.048225 97.484894,52.678673 97.966965,52.005432 
	C98.617523,51.096863 100.016144,50.723923 101.093765,50.121140 
	C101.640602,51.403484 102.187439,52.685829 102.522980,54.288223 
z"/>
<path fill="#FCF3E6" opacity="1.000000" stroke="none" 
	d="
M130.229523,72.010529 
	C129.982529,70.676079 129.707321,68.629112 130.159515,68.453339 
	C131.409348,67.967468 133.015045,68.043549 134.368912,68.365242 
	C134.860870,68.482132 135.038406,69.922272 135.359406,70.758667 
	C133.750671,71.223068 132.141953,71.687462 130.229523,72.010529 
z"/>
<path fill="#EFF4F8" opacity="1.000000" stroke="none" 
	d="
M17.694393,188.737091 
	C19.188616,188.416718 20.806698,188.187241 22.272297,188.558960 
	C23.453400,188.858521 24.460737,190.470505 25.526447,190.451462 
	C27.147720,190.422546 28.752808,189.486496 30.364769,188.935699 
	C29.331730,187.728699 28.515003,186.127457 27.211983,185.412506 
	C25.508024,184.477631 23.346838,184.421387 21.511639,183.670975 
	C17.660629,182.096329 16.051485,176.631454 19.259064,174.333740 
	C21.765606,172.538208 25.673410,171.867538 28.843954,172.122467 
	C30.957756,172.292435 32.870155,174.967239 34.872692,176.521027 
	C34.472462,177.214401 34.072235,177.907776 33.672005,178.601151 
	C32.281925,178.028763 30.911373,177.401459 29.496641,176.898392 
	C27.865332,176.318314 26.210543,175.555115 24.534426,175.466248 
	C23.809780,175.427856 22.693270,176.772034 22.371492,177.701630 
	C22.212717,178.160324 23.316483,179.457031 24.090004,179.760818 
	C26.247883,180.608307 28.777878,180.733170 30.693720,181.906342 
	C32.469719,182.993896 34.687412,184.992462 34.810253,186.724625 
	C34.956158,188.782028 33.623318,191.690628 31.961374,192.986313 
	C27.450247,196.503372 20.503975,194.342255 17.694393,188.737091 
z"/>
<path fill="#ECF2F7" opacity="1.000000" stroke="none" 
	d="
M146.597580,177.915695 
	C146.524078,182.233994 147.078842,186.448456 145.767715,189.967804 
	C144.986984,192.063446 141.432770,193.800766 138.836014,194.363388 
	C135.990219,194.979980 133.442123,193.276077 132.777786,189.890121 
	C135.549698,186.647949 141.530502,195.729172 142.632309,186.741180 
	C137.824631,187.378540 133.056198,187.433456 132.104416,181.212555 
	C131.545135,177.557236 132.939697,174.425568 136.623093,173.260849 
	C140.899780,171.908554 144.553253,172.911407 146.597580,177.915695 
M140.941040,176.527359 
	C139.436188,177.267578 137.386978,177.660110 136.615097,178.868530 
	C136.087875,179.693939 136.968430,182.050842 137.935074,182.972855 
	C138.565414,183.574051 141.574249,183.013397 141.633713,182.658020 
	C141.942749,180.811096 141.646500,178.862930 140.941040,176.527359 
z"/>
<path fill="#E7EEF5" opacity="1.000000" stroke="none" 
	d="
M98.847450,192.830261 
	C91.048973,196.204102 85.545982,192.483917 86.274246,184.752914 
	C86.735023,179.861450 89.943275,176.875839 94.423088,177.169540 
	C99.027466,177.471390 101.196594,180.348495 101.277847,186.906830 
	C97.954796,186.906830 94.609200,186.906830 90.777061,186.906830 
	C93.173172,194.630798 97.918083,186.558212 100.882698,189.984558 
	C100.457573,190.630417 99.804840,191.622070 98.847450,192.830261 
z"/>
<path fill="#E7EEF5" opacity="1.000000" stroke="none" 
	d="
M154.524963,179.724945 
	C151.514862,180.692612 149.859711,179.601059 151.535202,177.127304 
	C152.839340,175.201843 155.453537,173.158051 157.573792,173.059128 
	C159.940323,172.948715 163.490250,174.375839 164.523773,176.242096 
	C165.551300,178.097504 164.800064,181.759750 163.533234,183.841064 
	C162.169571,186.081421 159.300674,187.405594 155.782684,190.147110 
	C159.035049,190.147110 161.036255,189.967880 162.977280,190.231613 
	C163.802689,190.343765 164.502090,191.383408 165.258759,192.001572 
	C164.529633,192.643631 163.825043,193.804947 163.067291,193.840729 
	C159.115860,194.027344 155.150909,193.927765 149.489594,193.927765 
	C151.407837,190.806229 152.528442,188.439621 154.160126,186.503784 
	C155.406296,185.025360 157.557968,184.315491 158.825195,182.847870 
	C159.886551,181.618683 160.428101,179.828049 160.799225,178.194992 
	C160.891632,177.788376 159.105499,176.371155 158.751526,176.549179 
	C157.322296,177.268066 156.115402,178.429001 154.524963,179.724945 
z"/>
<path fill="#DCE7F3" opacity="1.000000" stroke="none" 
	d="
M63.837002,192.421219 
	C62.553825,193.277679 61.338238,193.698944 59.365665,194.382553 
	C59.365665,190.474686 59.617401,187.483612 59.246845,184.571716 
	C59.089573,183.335846 57.627186,182.266083 56.757938,181.120834 
	C55.808395,182.270981 54.216862,183.330399 54.038883,184.589615 
	C53.629925,187.483063 53.909321,190.473801 53.909321,193.425049 
	C53.354206,193.753647 52.799091,194.082230 52.243977,194.410828 
	C51.263721,193.240555 49.547016,192.134598 49.438213,190.888245 
	C49.079704,186.781693 49.303219,182.624329 49.303219,178.310226 
	C52.688797,177.976868 55.809868,177.448837 58.935032,177.423401 
	C62.113529,177.397507 63.754700,179.440369 63.875221,182.523712 
	C63.998341,185.673401 63.903828,188.831573 63.837002,192.421219 
z"/>
<path fill="#E4EDF4" opacity="1.000000" stroke="none" 
	d="
M72.960030,194.052628 
	C67.947037,190.459198 66.317032,184.583862 69.660141,180.605667 
	C71.205772,178.766403 74.487053,177.295975 76.812340,177.508469 
	C79.132782,177.720520 81.241837,180.245758 83.443573,181.756882 
	C83.050514,182.441864 82.657455,183.126846 82.264404,183.811829 
	C80.819740,183.236069 79.417587,182.451599 77.917877,182.146133 
	C76.553970,181.868347 75.084038,182.111115 73.660843,182.124420 
	C73.728981,184.637238 73.797119,187.150055 73.865257,189.662888 
	C75.279297,189.508957 76.732155,189.507172 78.096626,189.158981 
	C79.506172,188.799332 80.829811,188.103027 82.623001,187.379745 
	C81.429405,193.540466 79.805832,194.592300 72.960030,194.052628 
z"/>
<path fill="#E2EBF4" opacity="1.000000" stroke="none" 
	d="
M173.877869,186.884232 
	C175.540344,183.612793 177.088760,180.703766 179.061844,176.996918 
	C176.412506,176.996918 174.037247,177.160355 171.706757,176.908813 
	C170.884628,176.820068 170.172012,175.716644 169.409409,175.076492 
	C170.199371,174.460358 170.966171,173.350235 171.783249,173.311890 
	C175.741837,173.126114 179.713928,173.228088 184.699753,173.228088 
	C184.015106,175.291397 183.625732,176.864258 182.983124,178.325775 
	C181.131287,182.537643 179.280670,186.756882 177.205505,190.859909 
	C176.510284,192.234528 175.139999,193.267746 174.078262,194.457016 
	C173.553177,194.098541 173.028076,193.740067 172.502975,193.381592 
	C172.923264,191.336609 173.343536,189.291611 173.877869,186.884232 
z"/>
<path fill="#F2F6F9" opacity="1.000000" stroke="none" 
	d="
M119.999237,188.849670 
	C119.998886,185.593658 119.998886,182.804901 119.998886,179.922653 
	C118.109337,179.504425 116.580307,179.166000 113.815308,178.554001 
	C117.538361,176.136276 120.345734,174.313187 124.133240,171.853622 
	C124.133240,179.271362 124.199104,185.513672 124.043625,191.750458 
	C124.025696,192.469391 122.775383,193.157593 122.096451,193.860046 
	C121.397491,192.345673 120.698540,190.831299 119.999237,188.849670 
z"/>
<path fill="#F4F8FB" opacity="1.000000" stroke="none" 
	d="
M42.894035,177.979507 
	C43.591091,182.632294 43.911728,187.196671 43.952206,191.763519 
	C43.958347,192.456970 42.764500,193.463791 41.930908,193.741959 
	C41.472809,193.894836 40.035351,192.848938 40.017212,192.310608 
	C39.866837,187.848190 39.886505,183.375809 40.060978,178.914505 
	C40.075493,178.543365 41.602161,178.231369 42.894035,177.979507 
z"/>
<path fill="#2569B0" opacity="1.000000" stroke="none" 
	d="
M141.251038,176.738678 
	C141.646500,178.862930 141.942749,180.811096 141.633713,182.658020 
	C141.574249,183.013397 138.565414,183.574051 137.935074,182.972855 
	C136.968430,182.050842 136.087875,179.693939 136.615097,178.868530 
	C137.386978,177.660110 139.436188,177.267578 141.251038,176.738678 
z"/>
</svg>